<?xml version="1.0" encoding="utf-8"?><svg xmlns="http://www.w3.org/2000/svg" xmlns:xlink="http://www.w3.org/1999/xlink"><symbol viewBox="0 0 50.2 26.5" id="arrow-up"><path d="M25.1 3.4l22.7 22.7c.6.6 1.5.6 2 0 .6-.6.6-1.5 0-2L26.1.4c-.6-.6-1.5-.6-2 0L.4 24.1c-.3.3-.4.6-.4 1s.1.7.4 1c.6.6 1.5.6 2 0L25.1 3.4zm0 0"/></symbol><symbol viewBox="0 0 67.5 67.5" id="check"><path d="M35.4 45l-8 8L9.57 35.1l8-8 9.92 9.92L50 14.53l8 8zM33.75 0A33.75 33.75 0 1 0 67.5 33.75 33.75 33.75 0 0 0 33.75 0z"/></symbol><symbol viewBox="0 0 40 40" id="cross"><path d="M40 20c0 11-9 20-20 20S0 31 0 20 9 0 20 0s20 9 20 20zm0 0"/><path stroke="#FFF" stroke-width="1.6" stroke-linecap="round" stroke-miterlimit="10" d="M12.8 27.2l14.4-14.4m-14.4 0l14.4 14.4"/></symbol></svg>